<?xml version="1.0" encoding="UTF-8" standalone="no"?>
<svg
   xmlns:dc="http://purl.org/dc/elements/1.1/"
   xmlns:cc="http://creativecommons.org/ns#"
   xmlns:rdf="http://www.w3.org/1999/02/22-rdf-syntax-ns#"
   xmlns:svg="http://www.w3.org/2000/svg"
   xmlns="http://www.w3.org/2000/svg"
   xmlns:sodipodi="http://sodipodi.sourceforge.net/DTD/sodipodi-0.dtd"
   xmlns:inkscape="http://www.inkscape.org/namespaces/inkscape"
   width="128"
   height="128"
   version="1.1"
   viewBox="0 0 128 128"
   id="svg6"
   sodipodi:docname="icon.svg"
   inkscape:version="1.0.2 (e86c870879, 2021-01-15, custom)">
  <metadata
     id="metadata12">
    <rdf:RDF>
      <cc:Work
         rdf:about="">
        <dc:format>image/svg+xml</dc:format>
        <dc:type
           rdf:resource="http://purl.org/dc/dcmitype/StillImage" />
      </cc:Work>
    </rdf:RDF>
  </metadata>
  <defs
     id="defs10">
    <filter
       inkscape:collect="always"
       style="color-interpolation-filters:sRGB"
       id="filter987"
       x="-0.045056771"
       width="1.0901135"
       y="-0.051354622"
       height="1.1027092">
      <feGaussianBlur
         inkscape:collect="always"
         stdDeviation="1.7760335"
         id="feGaussianBlur989" />
    </filter>
  </defs>
  <sodipodi:namedview
     pagecolor="#ffffff"
     bordercolor="#666666"
     borderopacity="1"
     objecttolerance="10"
     gridtolerance="10"
     guidetolerance="10"
     inkscape:pageopacity="0"
     inkscape:pageshadow="2"
     inkscape:window-width="1720"
     inkscape:window-height="843"
     id="namedview8"
     showgrid="false"
     inkscape:zoom="2.3257184"
     inkscape:cx="17.744977"
     inkscape:cy="53.008377"
     inkscape:window-x="0"
     inkscape:window-y="0"
     inkscape:window-maximized="0"
     inkscape:current-layer="svg6">
    <inkscape:grid
       type="xygrid"
       id="grid837" />
  </sodipodi:namedview>
  <path
     id="path935"
     style="color:#000000;font-style:normal;font-variant:normal;font-weight:normal;font-stretch:normal;font-size:medium;line-height:normal;font-family:sans-serif;font-variant-ligatures:normal;font-variant-position:normal;font-variant-caps:normal;font-variant-numeric:normal;font-variant-alternates:normal;font-variant-east-asian:normal;font-feature-settings:normal;font-variation-settings:normal;text-indent:0;text-align:start;text-decoration:none;text-decoration-line:none;text-decoration-style:solid;text-decoration-color:#000000;letter-spacing:normal;word-spacing:normal;text-transform:none;writing-mode:lr-tb;direction:ltr;text-orientation:mixed;dominant-baseline:auto;baseline-shift:baseline;text-anchor:start;white-space:normal;shape-padding:0;shape-margin:0;inline-size:0;clip-rule:nonzero;display:inline;overflow:visible;visibility:visible;isolation:auto;mix-blend-mode:normal;color-interpolation:sRGB;color-interpolation-filters:linearRGB;solid-color:#000000;solid-opacity:1;vector-effect:none;fill:#ffffff;fill-opacity:1;fill-rule:evenodd;stroke:none;stroke-width:4;stroke-linecap:round;stroke-linejoin:round;stroke-miterlimit:4;stroke-dasharray:none;stroke-dashoffset:0;stroke-opacity:1;color-rendering:auto;image-rendering:auto;shape-rendering:auto;text-rendering:auto;enable-background:accumulate;stop-color:#000000"
     d="m 63.953124,0 c -0.68604,0.0079164 -1.358867,0.1922709 -1.953125,0.53515625 L 10.039061,30.535156 C 8.8041277,31.248241 8.038879,32.573973 8.0390613,34 v 60 c -1.823e-4,1.426027 0.7650664,2.751759 1.9999997,3.464844 l 51.960938,29.999996 c 1.234789,0.71281 2.765211,0.71281 4,0 L 117.96094,97.464844 c 1.23493,-0.713085 2.00018,-2.038817 2,-3.464844 V 34 c 1.8e-4,-1.426027 -0.76507,-2.751759 -2,-3.464844 L 65.999999,0.53515625 C 65.378226,0.17638801 64.670929,-0.00853531 63.953124,0 Z" />
  <path
     id="path904"
     style="color:#000000;font-style:normal;font-variant:normal;font-weight:normal;font-stretch:normal;font-size:medium;line-height:normal;font-family:sans-serif;font-variant-ligatures:normal;font-variant-position:normal;font-variant-caps:normal;font-variant-numeric:normal;font-variant-alternates:normal;font-variant-east-asian:normal;font-feature-settings:normal;font-variation-settings:normal;text-indent:0;text-align:start;text-decoration:none;text-decoration-line:none;text-decoration-style:solid;text-decoration-color:#000000;letter-spacing:normal;word-spacing:normal;text-transform:none;writing-mode:lr-tb;direction:ltr;text-orientation:mixed;dominant-baseline:auto;baseline-shift:baseline;text-anchor:start;white-space:normal;shape-padding:0;shape-margin:0;inline-size:0;clip-rule:nonzero;display:inline;overflow:visible;visibility:visible;isolation:auto;mix-blend-mode:normal;color-interpolation:sRGB;color-interpolation-filters:linearRGB;solid-color:#000000;solid-opacity:1;vector-effect:none;fill:#d1c862;fill-opacity:1;fill-rule:evenodd;stroke:none;stroke-width:4;stroke-linecap:round;stroke-linejoin:round;stroke-miterlimit:4;stroke-dasharray:none;stroke-dashoffset:0;stroke-opacity:1;color-rendering:auto;image-rendering:auto;shape-rendering:auto;text-rendering:auto;enable-background:accumulate;stop-color:#000000"
     d="M 63.976559,1.9999026 A 2.0002,2.0002 0 0 0 62.999997,2.2674807 L 11.039059,32.267481 a 2.0002,2.0002 0 0 0 -1,1.732422 v 60 a 2.0002,2.0002 0 0 0 1,1.732422 l 51.960938,29.999995 a 2.0002,2.0002 0 0 0 2,0 L 116.96094,95.732325 a 2.0002,2.0002 0 0 0 1,-1.732422 v -60 a 2.0002,2.0002 0 0 0 -1,-1.732422 L 64.999997,2.2674807 A 2.0002,2.0002 0 0 0 63.976559,1.9999026 Z" />
  <path
     sodipodi:type="star"
     style="fill:#e8d95a;fill-opacity:1;fill-rule:evenodd;stroke-width:3;stroke-linecap:round;stroke-linejoin:round"
     id="path851"
     sodipodi:sides="6"
     sodipodi:cx="64"
     sodipodi:cy="63.999893"
     sodipodi:r1="49.999893"
     sodipodi:r2="45.183926"
     sodipodi:arg1="-1.5707963"
     sodipodi:arg2="-1.0471976"
     inkscape:flatsided="true"
     inkscape:rounded="0"
     inkscape:randomized="0"
     d="m 64,14 43.30118,24.999947 V 88.99984 L 64,113.99979 20.698822,88.99984 l 0,-49.999893 z" />
  <path
     id="path882"
     style="fill:#c3b735;fill-opacity:1;fill-rule:evenodd;stroke-width:3;stroke-linecap:round;stroke-linejoin:round"
     d="m 64,64 43.30127,-25 -9e-5,49.99984 L 64,113.99979 Z"
     sodipodi:nodetypes="ccccc" />
  <path
     id="path885"
     style="fill:#b2a728;fill-opacity:1;fill-rule:evenodd;stroke-width:3;stroke-linecap:round;stroke-linejoin:round"
     d="m 64,64 v 49.99979 L 20.69873,89 V 39 Z"
     sodipodi:nodetypes="ccccc" />
  <path
     id="path974"
     style="color:#000000;font-style:normal;font-variant:normal;font-weight:normal;font-stretch:normal;font-size:medium;line-height:normal;font-family:sans-serif;font-variant-ligatures:normal;font-variant-position:normal;font-variant-caps:normal;font-variant-numeric:normal;font-variant-alternates:normal;font-variant-east-asian:normal;font-feature-settings:normal;font-variation-settings:normal;text-indent:0;text-align:start;text-decoration:none;text-decoration-line:none;text-decoration-style:solid;text-decoration-color:#000000;letter-spacing:normal;word-spacing:normal;text-transform:none;writing-mode:lr-tb;direction:ltr;text-orientation:mixed;dominant-baseline:auto;baseline-shift:baseline;text-anchor:start;white-space:normal;shape-padding:0;shape-margin:0;inline-size:0;clip-rule:nonzero;display:inline;overflow:visible;visibility:visible;isolation:auto;mix-blend-mode:normal;color-interpolation:sRGB;color-interpolation-filters:linearRGB;solid-color:#000000;solid-opacity:1;vector-effect:none;fill:#ffff00;fill-opacity:1;fill-rule:evenodd;stroke:none;stroke-linecap:round;stroke-linejoin:round;stroke-miterlimit:4;stroke-dasharray:none;stroke-dashoffset:0;stroke-opacity:1;color-rendering:auto;image-rendering:auto;shape-rendering:auto;text-rendering:auto;enable-background:accumulate;stop-color:#000000;stop-opacity:1;opacity:1;filter:url(#filter987)"
     d="M 20.699219 35 A 4 4 0 0 0 16.699219 39 L 16.699219 89 A 4.0004 4.0004 0 0 0 18.699219 92.464844 L 62 117.46484 A 4 4 0 0 0 67.464844 116 A 4 4 0 0 0 66 110.53516 L 24.699219 86.691406 L 24.699219 39 A 4 4 0 0 0 20.699219 35 z M 107.28516 35 A 4 4 0 0 0 105.30078 35.535156 L 83.650391 48.035156 A 4.0004 4.0004 0 0 0 81.650391 51.5 L 81.650391 74.191406 L 64 84.380859 L 46.349609 74.191406 L 46.349609 51.5 A 4 4 0 0 0 42.349609 47.5 A 4 4 0 0 0 38.349609 51.5 L 38.349609 76.5 A 4.0004 4.0004 0 0 0 40.349609 79.964844 L 62 92.464844 A 4.0004 4.0004 0 0 0 66 92.464844 L 87.650391 79.964844 A 4.0004 4.0004 0 0 0 89.650391 76.5 L 89.650391 53.808594 L 109.30078 42.464844 A 4 4 0 0 0 110.76562 37 A 4 4 0 0 0 107.28516 35 z " />
  <path
     id="path968"
     style="color:#000000;font-style:normal;font-variant:normal;font-weight:normal;font-stretch:normal;font-size:medium;line-height:normal;font-family:sans-serif;font-variant-ligatures:normal;font-variant-position:normal;font-variant-caps:normal;font-variant-numeric:normal;font-variant-alternates:normal;font-variant-east-asian:normal;font-feature-settings:normal;font-variation-settings:normal;text-indent:0;text-align:start;text-decoration:none;text-decoration-line:none;text-decoration-style:solid;text-decoration-color:#000000;letter-spacing:normal;word-spacing:normal;text-transform:none;writing-mode:lr-tb;direction:ltr;text-orientation:mixed;dominant-baseline:auto;baseline-shift:baseline;text-anchor:start;white-space:normal;shape-padding:0;shape-margin:0;inline-size:0;clip-rule:nonzero;display:inline;overflow:visible;visibility:visible;isolation:auto;mix-blend-mode:normal;color-interpolation:sRGB;color-interpolation-filters:linearRGB;solid-color:#000000;solid-opacity:1;vector-effect:none;fill:#ffffff;fill-opacity:1;fill-rule:evenodd;stroke:none;stroke-linecap:round;stroke-linejoin:round;stroke-miterlimit:4;stroke-dasharray:none;stroke-dashoffset:0;stroke-opacity:1;color-rendering:auto;image-rendering:auto;shape-rendering:auto;text-rendering:auto;enable-background:accumulate;stop-color:#000000;stop-opacity:1;opacity:1"
     d="M 20.699219 35 A 4 4 0 0 0 16.699219 39 L 16.699219 89 A 4.0004 4.0004 0 0 0 18.699219 92.464844 L 62 117.46484 A 4 4 0 0 0 67.464844 116 A 4 4 0 0 0 66 110.53516 L 24.699219 86.691406 L 24.699219 39 A 4 4 0 0 0 20.699219 35 z M 107.28516 35 A 4 4 0 0 0 105.30078 35.535156 L 83.650391 48.035156 A 4.0004 4.0004 0 0 0 81.650391 51.5 L 81.650391 74.191406 L 64 84.380859 L 46.349609 74.191406 L 46.349609 51.5 A 4 4 0 0 0 42.349609 47.5 A 4 4 0 0 0 38.349609 51.5 L 38.349609 76.5 A 4.0004 4.0004 0 0 0 40.349609 79.964844 L 62 92.464844 A 4.0004 4.0004 0 0 0 66 92.464844 L 87.650391 79.964844 A 4.0004 4.0004 0 0 0 89.650391 76.5 L 89.650391 53.808594 L 109.30078 42.464844 A 4 4 0 0 0 110.76562 37 A 4 4 0 0 0 107.28516 35 z " />
  <path
     id="path991"
     style="color:#000000;font-style:normal;font-variant:normal;font-weight:normal;font-stretch:normal;font-size:medium;line-height:normal;font-family:sans-serif;font-variant-ligatures:normal;font-variant-position:normal;font-variant-caps:normal;font-variant-numeric:normal;font-variant-alternates:normal;font-variant-east-asian:normal;font-feature-settings:normal;font-variation-settings:normal;text-indent:0;text-align:start;text-decoration:none;text-decoration-line:none;text-decoration-style:solid;text-decoration-color:#000000;letter-spacing:normal;word-spacing:normal;text-transform:none;writing-mode:lr-tb;direction:ltr;text-orientation:mixed;dominant-baseline:auto;baseline-shift:baseline;text-anchor:start;white-space:normal;shape-padding:0;shape-margin:0;inline-size:0;clip-rule:nonzero;display:inline;overflow:visible;visibility:visible;isolation:auto;mix-blend-mode:normal;color-interpolation:sRGB;color-interpolation-filters:linearRGB;solid-color:#000000;solid-opacity:1;vector-effect:none;fill:#ffffce;fill-opacity:1;fill-rule:evenodd;stroke:none;stroke-linecap:round;stroke-linejoin:round;stroke-miterlimit:4;stroke-dasharray:none;stroke-dashoffset:0;stroke-opacity:1;color-rendering:auto;image-rendering:auto;shape-rendering:auto;text-rendering:auto;enable-background:accumulate;stop-color:#000000;stop-opacity:1;opacity:1"
     d="M 20.699219 37 A 2 2 0 0 0 18.699219 39 L 18.699219 89 A 2.0002 2.0002 0 0 0 19.699219 90.732422 L 63 115.73242 A 2 2 0 0 0 65.732422 115 A 2 2 0 0 0 65 112.26758 L 22.699219 87.845703 L 22.699219 39 A 2 2 0 0 0 20.699219 37 z M 107.25586 37 A 2 2 0 0 0 106.30078 37.267578 L 84.650391 49.767578 A 2.0002 2.0002 0 0 0 83.650391 51.5 L 83.650391 75.345703 L 64 86.691406 L 44.349609 75.345703 L 44.349609 51.5 A 2 2 0 0 0 42.349609 49.5 A 2 2 0 0 0 40.349609 51.5 L 40.349609 76.5 A 2.0002 2.0002 0 0 0 41.349609 78.232422 L 63 90.732422 A 2.0002 2.0002 0 0 0 65 90.732422 L 86.650391 78.232422 A 2.0002 2.0002 0 0 0 87.650391 76.5 L 87.650391 52.654297 L 108.30078 40.732422 A 2 2 0 0 0 109.0332 38 A 2 2 0 0 0 107.25586 37 z " />
</svg>
