<?xml version="1.0" encoding="UTF-8"?>
<svg width="128" height="128" version="1.1" viewBox="0 0 128 128" xmlns="http://www.w3.org/2000/svg">
 <defs>
  <filter id="filter987" x="-.045057" y="-.051355" width="1.0901" height="1.1027" color-interpolation-filters="sRGB">
   <feGaussianBlur stdDeviation="1.7760335"/>
  </filter>
 </defs>
 <g fill-rule="evenodd">
  <path d="m63.953 0c-0.68604 0.0079164-1.3589 0.19227-1.9531 0.53516l-51.961 30c-1.2349 0.71308-2.0002 2.0388-2 3.4648v60c-1.823e-4 1.426 0.76507 2.7518 2 3.4648l51.961 30c1.2348 0.71281 2.7652 0.71281 4 0l51.961-30c1.2349-0.71308 2.0002-2.0388 2-3.4648v-60c1.8e-4 -1.426-0.76507-2.7518-2-3.4648l-51.961-30c-0.62177-0.35877-1.3291-0.54369-2.0469-0.53516z" fill="#fff"/>
  <path d="m63.977 1.9999a2.0002 2.0002 0 0 0-0.97656 0.26758l-51.961 30a2.0002 2.0002 0 0 0-1 1.7324v60a2.0002 2.0002 0 0 0 1 1.7324l51.961 30a2.0002 2.0002 0 0 0 2 0l51.961-30a2.0002 2.0002 0 0 0 1-1.7324v-60a2.0002 2.0002 0 0 0-1-1.7324l-51.961-30a2.0002 2.0002 0 0 0-1.0234-0.26758z" fill="#d1c862"/>
  <path d="m64 14 43.301 25v50l-43.301 25-43.301-25v-50z" fill="#e8d95a"/>
  <path d="m64 64 43.301-25-9e-5 50-43.301 25z" fill="#c3b735"/>
  <path d="m64 64v50l-43.301-25v-50z" fill="#b2a728"/>
 </g>
 <g fill-rule="evenodd">
  <path d="m20.699 35a4 4 0 0 0-4 4v50a4.0004 4.0004 0 0 0 2 3.4648l43.301 25a4 4 0 0 0 5.4648-1.4648 4 4 0 0 0-1.4648-5.4648l-41.301-23.844v-47.691a4 4 0 0 0-4-4zm86.586 0a4 4 0 0 0-1.9844 0.53516l-21.65 12.5a4.0004 4.0004 0 0 0-2 3.4648v22.691l-17.65 10.189-17.65-10.189v-22.691a4 4 0 0 0-4-4 4 4 0 0 0-4 4v25a4.0004 4.0004 0 0 0 2 3.4648l21.65 12.5a4.0004 4.0004 0 0 0 4 0l21.65-12.5a4.0004 4.0004 0 0 0 2-3.4648v-22.691l19.65-11.344a4 4 0 0 0 1.4648-5.4648 4 4 0 0 0-3.4805-2z" fill="#ff0" filter="url(#filter987)"/>
  <path d="m20.699 35a4 4 0 0 0-4 4v50a4.0004 4.0004 0 0 0 2 3.4648l43.301 25a4 4 0 0 0 5.4648-1.4648 4 4 0 0 0-1.4648-5.4648l-41.301-23.844v-47.691a4 4 0 0 0-4-4zm86.586 0a4 4 0 0 0-1.9844 0.53516l-21.65 12.5a4.0004 4.0004 0 0 0-2 3.4648v22.691l-17.65 10.189-17.65-10.189v-22.691a4 4 0 0 0-4-4 4 4 0 0 0-4 4v25a4.0004 4.0004 0 0 0 2 3.4648l21.65 12.5a4.0004 4.0004 0 0 0 4 0l21.65-12.5a4.0004 4.0004 0 0 0 2-3.4648v-22.691l19.65-11.344a4 4 0 0 0 1.4648-5.4648 4 4 0 0 0-3.4805-2z" fill="#fff"/>
  <path d="m20.699 37a2 2 0 0 0-2 2v50a2.0002 2.0002 0 0 0 1 1.7324l43.301 25a2 2 0 0 0 2.7324-0.73242 2 2 0 0 0-0.73242-2.7324l-42.301-24.422v-48.846a2 2 0 0 0-2-2zm86.557 0a2 2 0 0 0-0.95508 0.26758l-21.65 12.5a2.0002 2.0002 0 0 0-1 1.7324v23.846l-19.65 11.346-19.65-11.346v-23.846a2 2 0 0 0-2-2 2 2 0 0 0-2 2v25a2.0002 2.0002 0 0 0 1 1.7324l21.65 12.5a2.0002 2.0002 0 0 0 2 0l21.65-12.5a2.0002 2.0002 0 0 0 1-1.7324v-23.846l20.65-11.922a2 2 0 0 0 0.73242-2.7324 2 2 0 0 0-1.7773-1z" fill="#ffffce"/>
 </g>
</svg>
